<?xml version="1.0" encoding="UTF-8" standalone="no"?>
<svg width="647px" height="144px" viewBox="0 0 647 144" version="1.1" xmlns="http://www.w3.org/2000/svg" xmlns:xlink="http://www.w3.org/1999/xlink">
    <!-- Generator: Sketch 40 (33762) - http://www.bohemiancoding.com/sketch -->
    <title>ReqCheck logo</title>
    <desc>Created with Sketch.</desc>
    <defs></defs>
    <g id="Page-1" stroke="none" stroke-width="1" fill="none" fill-rule="evenodd">
        <g id="ReqCheck-logo" fill="#ffffff">
            <g id="wordmark" transform="translate(157.000000, 35.000000)">
                <path d="M32.8310363,16.5819 L18.3353263,16.5819 L18.3353263,32.5262333 L32.8310363,32.5262333 C37.6288912,32.5262333 41.6791631,29.4439476 41.6791631,24.5533286 C41.6791631,19.6641857 37.6288912,16.5819 32.8310363,16.5819 L32.8310363,16.5819 Z M27.7149033,48.0454238 L18.3353263,48.0454238 L18.3353263,72.0674714 L-0.000444108761,72.0674714 L-0.000444108761,1.16899524 L35.6037553,1.16899524 C51.3784985,1.16899524 60.3332115,11.5864714 60.3332115,24.7659 C60.3332115,37.096519 52.7641178,43.6877095 46.1557795,46.0259952 L60.6529698,72.0674714 L39.6525468,72.0674714 L27.7149033,48.0454238 Z" id="r"></path>
                <path d="M80.1542296,40.9238381 L101.367825,40.9238381 C100.94148,37.3101238 98.2753474,32.1006476 90.7077341,32.1006476 C83.5649849,32.1006476 80.7937462,37.2023619 80.1542296,40.9238381 M90.7077341,19.4526476 C105.951027,19.4526476 117.037462,30.6126476 117.037462,48.044981 L117.037462,51.5538857 L80.3674018,51.5538857 C81.3266767,56.3367429 85.8032931,60.6944571 93.4789728,60.6944571 C98.0621752,60.6944571 103.179789,58.8876 106.057613,56.3367429 L112.98571,66.5416476 C107.869577,71.1119333 99.3412085,73.3439333 91.4538369,73.3439333 C75.5710272,73.3439333 63.312145,63.0327429 63.312145,46.3444095 C63.312145,31.4629333 74.6117523,19.4526476 90.7077341,19.4526476" id="e"></path>
                <path d="M159.668054,38.5848143 C157.642918,35.8213857 153.272888,33.9082429 149.860653,33.9082429 C143.465486,33.9082429 138.562526,38.6911 138.562526,46.3451476 C138.562526,54.1040048 143.465486,58.8868619 149.860653,58.8868619 C153.272888,58.8868619 157.642918,56.8674333 159.668054,54.2102905 L159.668054,38.5848143 Z M159.668054,91.6258143 L159.668054,66.009481 C155.40461,71.1111952 150.180411,73.3431952 144.424761,73.3431952 C131.419776,73.3431952 121.720441,63.7760048 121.720441,46.3451476 C121.720441,29.0191 131.419776,19.4519095 144.424761,19.4519095 C150.288477,19.4519095 155.617782,21.7901952 159.668054,26.6808143 L159.668054,20.7273381 L175.977208,20.7273381 L175.977208,91.6258143 L159.668054,91.6258143 Z" id="q"></path>
                <path d="M222.766731,0.000295238095 C240.461505,0.000295238095 249.62939,9.67229524 254.319178,19.0269143 L238.542955,26.4669143 C236.19806,20.8337714 230.122653,16.1572 222.766731,16.1572 C211.681776,16.1572 203.473166,25.0852 203.473166,36.671819 C203.473166,48.2584381 211.681776,57.1864381 222.766731,57.1864381 C230.122653,57.1864381 236.19806,52.5098667 238.542955,46.8767238 L254.319178,54.3167238 C249.735976,63.4587714 240.461505,73.3433429 222.766731,73.3433429 C201.44803,73.3433429 184.819118,58.4618667 184.819118,36.671819 C184.819118,14.7754857 201.44803,0.000295238095 222.766731,0.000295238095 Z" id="c"></path>
                <path d="M296.736006,42.1989714 C296.736006,35.9281143 293.431837,33.9086857 288.207637,33.9086857 C283.411263,33.9086857 280.21368,36.5658286 278.29513,38.9041143 L278.29513,72.0682095 L261.87939,72.0682095 L261.87939,1.16973333 L278.29513,1.16973333 L278.29513,26.9986381 C281.386127,23.3849238 287.461535,19.4523524 296.096489,19.4523524 C307.822441,19.4523524 313.151746,26.0420667 313.151746,35.5029714 L313.151746,72.0682095 L296.736006,72.0682095 L296.736006,42.1989714 Z" id="h"></path>
                <path d="M359.728689,40.9238381 C359.302344,37.3101238 356.636211,32.1006476 349.068598,32.1006476 C341.925849,32.1006476 339.15461,37.2023619 338.515094,40.9238381 L359.728689,40.9238381 Z M375.398326,48.044981 L375.398326,51.5538857 L338.728266,51.5538857 C339.687541,56.3367429 344.164157,60.6944571 351.839837,60.6944571 C356.423039,60.6944571 361.540653,58.8876 364.418477,56.3367429 L371.346574,66.5416476 C366.230441,71.1119333 357.702073,73.3439333 349.814701,73.3439333 C333.931891,73.3439333 321.673009,63.0327429 321.673009,46.3444095 C321.673009,31.4629333 332.972616,19.4526476 349.068598,19.4526476 C364.311891,19.4526476 375.398326,30.6126476 375.398326,48.044981 Z" id="e"></path>
                <path d="M408.222257,19.4520571 C419.308692,19.4520571 426.236789,24.3426762 429.327785,28.9129619 L418.669175,38.7975333 C416.642559,35.8215333 413.33987,33.9083905 408.96836,33.9083905 C402.146849,33.9083905 396.92265,38.5849619 396.92265,46.3452952 C396.92265,54.1041524 402.146849,58.8870095 408.96836,58.8870095 C413.33987,58.8870095 416.642559,56.7612952 418.669175,53.891581 L429.327785,63.8839143 C426.236789,68.3479143 419.308692,73.3433429 408.222257,73.3433429 C392.126275,73.3433429 380.080565,62.5022 380.080565,46.3452952 C380.080565,30.2946762 392.126275,19.4520571 408.222257,19.4520571" id="c"></path>
                <polygon id="k" points="458.104257 53.8917286 453.199816 59.7374429 453.199816 72.0680619 436.785556 72.0680619 436.785556 1.16958571 453.199816 1.16958571 453.199816 41.2422524 468.869453 20.7276333 488.697429 20.7276333 469.723622 44.1119667 489.655224 72.0680619 469.403864 72.0680619"></polygon>
            </g>
            <g id="icon">
                <path d="M117.964286,30.5357143 C119.464293,32.0357218 120.749995,34.0714157 121.821429,36.6428571 C122.892862,39.2142986 123.428571,41.5714179 123.428571,43.7142857 L123.428571,136.285714 C123.428571,138.428582 122.678579,140.249992 121.178571,141.75 C119.678564,143.250008 117.857154,144 115.714286,144 L7.71428571,144 C5.57141786,144 3.7500075,143.250008 2.25,141.75 C0.7499925,140.249992 0,138.428582 0,136.285714 L0,7.71428571 C0,5.57141786 0.7499925,3.7500075 2.25,2.25 C3.7500075,0.7499925 5.57141786,0 7.71428571,0 L79.7142857,0 C81.8571536,0 84.2142729,0.535708929 86.7857143,1.60714286 C89.3571557,2.67857679 91.3928496,3.96427821 92.8928571,5.46428571 L117.964286,30.5357143 Z M82.2857143,10.9285714 L82.2857143,41.1428571 L112.5,41.1428571 C111.964283,39.5892779 111.375003,38.4910746 110.732143,37.8482143 L85.5803571,12.6964286 C84.9374968,12.0535682 83.8392935,11.4642884 82.2857143,10.9285714 L82.2857143,10.9285714 Z M113.142857,133.714286 L113.142857,51.4285714 L79.7142857,51.4285714 C77.5714179,51.4285714 75.7500075,50.6785789 74.25,49.1785714 C72.7499925,47.6785639 72,45.8571536 72,43.7142857 L72,10.2857143 L10.2857143,10.2857143 L10.2857143,133.714286 L113.142857,133.714286 Z" id="paper" transform="translate(61.714286, 72.000000) scale(-1, 1) translate(-61.714286, -72.000000) "></path>
                <path d="M89.6785714,65.3571429 C89.6785714,66.3095286 89.3452414,67.1190443 88.6785714,67.7857143 L62.8214286,93.6428571 L57.9642857,98.5 C57.2976157,99.16667 56.4881,99.5 55.5357143,99.5 C54.5833286,99.5 53.7738129,99.16667 53.1071429,98.5 L48.25,93.6428571 L35.3214286,80.7142857 C34.6547586,80.0476157 34.3214286,79.2381 34.3214286,78.2857143 C34.3214286,77.3333286 34.6547586,76.5238129 35.3214286,75.8571429 L40.1785714,71 C40.8452414,70.33333 41.6547571,70 42.6071429,70 C43.5595286,70 44.3690443,70.33333 45.0357143,71 L55.5357143,81.5357143 L78.9642857,58.0714286 C79.6309557,57.4047586 80.4404714,57.0714286 81.3928571,57.0714286 C82.3452429,57.0714286 83.1547586,57.4047586 83.8214286,58.0714286 L88.6785714,62.9285714 C89.3452414,63.5952414 89.6785714,64.4047571 89.6785714,65.3571429 L89.6785714,65.3571429 Z" id="checkmark"></path>
            </g>
        </g>
    </g>
</svg>